<mxfile host="app.diagrams.net" modified="2021-06-12T17:21:25.499Z" agent="5.0 (Windows NT 10.0; Win64; x64) AppleWebKit/537.36 (KHTML, like Gecko) Chrome/91.0.4472.101 Safari/537.36" etag="Q_g6ApxxGYS8OdZsu8Gn" version="14.7.7" type="github">
  <diagram id="C5RBs43oDa-KdzZeNtuy" name="Page-1">
    <mxGraphModel dx="1673" dy="908" grid="1" gridSize="10" guides="1" tooltips="1" connect="1" arrows="1" fold="1" page="1" pageScale="1" pageWidth="827" pageHeight="1169" math="0" shadow="0">
      <root>
        <mxCell id="WIyWlLk6GJQsqaUBKTNV-0" />
        <mxCell id="WIyWlLk6GJQsqaUBKTNV-1" parent="WIyWlLk6GJQsqaUBKTNV-0" />
        <mxCell id="gjBLnVvrwHX34gqaagrP-5" value="Читати з файла" style="text;html=1;align=center;verticalAlign=middle;resizable=0;points=[];autosize=1;strokeColor=none;" vertex="1" parent="WIyWlLk6GJQsqaUBKTNV-1">
          <mxGeometry x="10" y="10" width="100" height="20" as="geometry" />
        </mxCell>
        <mxCell id="gjBLnVvrwHX34gqaagrP-7" style="edgeStyle=orthogonalEdgeStyle;rounded=0;orthogonalLoop=1;jettySize=auto;html=1;" edge="1" parent="WIyWlLk6GJQsqaUBKTNV-1" source="gjBLnVvrwHX34gqaagrP-6" target="gjBLnVvrwHX34gqaagrP-10">
          <mxGeometry relative="1" as="geometry">
            <mxPoint x="370" y="100" as="targetPoint" />
          </mxGeometry>
        </mxCell>
        <mxCell id="gjBLnVvrwHX34gqaagrP-12" value="" style="edgeStyle=orthogonalEdgeStyle;rounded=0;orthogonalLoop=1;jettySize=auto;html=1;" edge="1" parent="WIyWlLk6GJQsqaUBKTNV-1" source="gjBLnVvrwHX34gqaagrP-6" target="gjBLnVvrwHX34gqaagrP-11">
          <mxGeometry relative="1" as="geometry" />
        </mxCell>
        <mxCell id="gjBLnVvrwHX34gqaagrP-6" value="такий файл існує" style="rhombus;whiteSpace=wrap;html=1;" vertex="1" parent="WIyWlLk6GJQsqaUBKTNV-1">
          <mxGeometry x="180" y="60" width="110" height="80" as="geometry" />
        </mxCell>
        <mxCell id="gjBLnVvrwHX34gqaagrP-10" value="вивід ошибки" style="rounded=1;whiteSpace=wrap;html=1;" vertex="1" parent="WIyWlLk6GJQsqaUBKTNV-1">
          <mxGeometry x="430" y="70" width="120" height="60" as="geometry" />
        </mxCell>
        <mxCell id="gjBLnVvrwHX34gqaagrP-14" value="" style="edgeStyle=orthogonalEdgeStyle;rounded=0;orthogonalLoop=1;jettySize=auto;html=1;entryX=0.5;entryY=1;entryDx=0;entryDy=0;" edge="1" parent="WIyWlLk6GJQsqaUBKTNV-1" source="gjBLnVvrwHX34gqaagrP-11" target="gjBLnVvrwHX34gqaagrP-10">
          <mxGeometry relative="1" as="geometry">
            <mxPoint x="450" y="260" as="targetPoint" />
          </mxGeometry>
        </mxCell>
        <mxCell id="gjBLnVvrwHX34gqaagrP-18" value="" style="edgeStyle=orthogonalEdgeStyle;rounded=0;orthogonalLoop=1;jettySize=auto;html=1;" edge="1" parent="WIyWlLk6GJQsqaUBKTNV-1" source="gjBLnVvrwHX34gqaagrP-11" target="gjBLnVvrwHX34gqaagrP-17">
          <mxGeometry relative="1" as="geometry" />
        </mxCell>
        <mxCell id="gjBLnVvrwHX34gqaagrP-11" value="всі поля відповідаю шаблону" style="rhombus;whiteSpace=wrap;html=1;" vertex="1" parent="WIyWlLk6GJQsqaUBKTNV-1">
          <mxGeometry x="180" y="220" width="110" height="80" as="geometry" />
        </mxCell>
        <mxCell id="gjBLnVvrwHX34gqaagrP-15" value="ні" style="text;html=1;align=center;verticalAlign=middle;resizable=0;points=[];autosize=1;strokeColor=none;" vertex="1" parent="WIyWlLk6GJQsqaUBKTNV-1">
          <mxGeometry x="300" y="70" width="20" height="20" as="geometry" />
        </mxCell>
        <mxCell id="gjBLnVvrwHX34gqaagrP-16" value="ні" style="text;html=1;align=center;verticalAlign=middle;resizable=0;points=[];autosize=1;strokeColor=none;" vertex="1" parent="WIyWlLk6GJQsqaUBKTNV-1">
          <mxGeometry x="300" y="230" width="20" height="20" as="geometry" />
        </mxCell>
        <mxCell id="gjBLnVvrwHX34gqaagrP-19" style="edgeStyle=orthogonalEdgeStyle;rounded=0;orthogonalLoop=1;jettySize=auto;html=1;" edge="1" parent="WIyWlLk6GJQsqaUBKTNV-1" source="gjBLnVvrwHX34gqaagrP-17">
          <mxGeometry relative="1" as="geometry">
            <mxPoint x="490" y="130" as="targetPoint" />
          </mxGeometry>
        </mxCell>
        <mxCell id="gjBLnVvrwHX34gqaagrP-23" value="" style="edgeStyle=orthogonalEdgeStyle;rounded=0;orthogonalLoop=1;jettySize=auto;html=1;" edge="1" parent="WIyWlLk6GJQsqaUBKTNV-1" source="gjBLnVvrwHX34gqaagrP-17" target="gjBLnVvrwHX34gqaagrP-22">
          <mxGeometry relative="1" as="geometry" />
        </mxCell>
        <mxCell id="gjBLnVvrwHX34gqaagrP-17" value="база даних доступна" style="rhombus;whiteSpace=wrap;html=1;" vertex="1" parent="WIyWlLk6GJQsqaUBKTNV-1">
          <mxGeometry x="180" y="340" width="110" height="80" as="geometry" />
        </mxCell>
        <mxCell id="gjBLnVvrwHX34gqaagrP-20" value="ні" style="text;html=1;align=center;verticalAlign=middle;resizable=0;points=[];autosize=1;strokeColor=none;" vertex="1" parent="WIyWlLk6GJQsqaUBKTNV-1">
          <mxGeometry x="310" y="350" width="20" height="20" as="geometry" />
        </mxCell>
        <mxCell id="gjBLnVvrwHX34gqaagrP-24" style="edgeStyle=orthogonalEdgeStyle;rounded=0;orthogonalLoop=1;jettySize=auto;html=1;" edge="1" parent="WIyWlLk6GJQsqaUBKTNV-1" source="gjBLnVvrwHX34gqaagrP-22">
          <mxGeometry relative="1" as="geometry">
            <mxPoint x="490" y="140" as="targetPoint" />
          </mxGeometry>
        </mxCell>
        <mxCell id="gjBLnVvrwHX34gqaagrP-29" value="" style="edgeStyle=orthogonalEdgeStyle;rounded=0;orthogonalLoop=1;jettySize=auto;html=1;" edge="1" parent="WIyWlLk6GJQsqaUBKTNV-1" source="gjBLnVvrwHX34gqaagrP-22" target="gjBLnVvrwHX34gqaagrP-28">
          <mxGeometry relative="1" as="geometry" />
        </mxCell>
        <mxCell id="gjBLnVvrwHX34gqaagrP-22" value="записало в базу" style="rhombus;whiteSpace=wrap;html=1;" vertex="1" parent="WIyWlLk6GJQsqaUBKTNV-1">
          <mxGeometry x="180" y="500" width="110" height="80" as="geometry" />
        </mxCell>
        <mxCell id="gjBLnVvrwHX34gqaagrP-28" value="перенаправлення&amp;nbsp;" style="whiteSpace=wrap;html=1;" vertex="1" parent="WIyWlLk6GJQsqaUBKTNV-1">
          <mxGeometry x="180" y="610" width="120" height="60" as="geometry" />
        </mxCell>
      </root>
    </mxGraphModel>
  </diagram>
</mxfile>
